<svg width="438" height="250" viewBox="0 0 438 250" fill="none" xmlns="http://www.w3.org/2000/svg">
<path d="M76.9047 10.52C69.3522 3.50666 59.4591 0 47.2254 0H0V111.649H22.8251V74.1591H47.2254C59.582 74.1591 69.5031 70.7306 76.9885 63.8736C80.6745 60.5259 83.589 56.4178 85.5306 51.8335C87.4721 47.2492 88.3943 42.298 88.2335 37.3224C88.3813 32.3038 87.446 27.3121 85.4911 22.6872C83.5363 18.0622 80.6077 13.9123 76.9047 10.52V10.52ZM59.8278 49.1993C58.1533 50.7928 56.1736 52.0312 54.0079 52.8402C51.8421 53.6491 49.535 54.0118 47.2254 53.9065H22.8251V20.2526H47.2254C49.5479 20.1604 51.8646 20.5455 54.0322 21.384C56.1999 22.2224 58.1724 23.4965 59.8278 25.1273C61.4127 26.7113 62.6557 28.6033 63.4801 30.6864C64.3045 32.7696 64.6927 34.9996 64.6208 37.2387C64.6869 39.4545 64.2954 41.6602 63.4708 43.7181C62.6461 45.7759 61.406 47.6418 59.8278 49.1993V49.1993ZM102.227 0H124.985V111.649H102.227V0ZM247.272 0L207.47 55.6654L247.205 111.649H219.436L193.577 74.0083L167.736 111.649H140.604L180.338 55.9836L140.604 0H168.373L194.231 37.6407L220.073 0H247.272ZM261.399 0H335.756V20.2526H284.157V45.782H334.097V65.8838H284.157V91.3964H335.689V111.649H261.332L261.399 0ZM377.921 91.3964H429.453V111.649H355.045V0H377.854L377.921 91.3964ZM0 136.76H71.1566V157.012H22.8251V184.92H69.5645V205.173H22.8251V248.392H0V136.76ZM263.762 135.084C247.171 135.084 233.239 140.612 221.966 151.668C216.457 156.951 212.109 163.323 209.198 170.377C206.287 177.431 204.876 185.014 205.057 192.643C204.894 200.247 206.313 207.802 209.224 214.829C212.135 221.856 216.474 228.203 221.966 233.466C233.25 244.533 247.182 250.067 263.762 250.067C280.342 250.067 294.307 244.533 305.658 233.466C311.135 228.195 315.459 221.846 318.355 214.819C321.251 207.792 322.657 200.241 322.484 192.643C322.646 185.036 321.226 177.479 318.316 170.449C315.405 163.419 311.066 157.07 305.574 151.802C294.302 140.702 280.364 135.151 263.762 135.151V135.084ZM288.9 218.507C285.641 221.836 281.75 224.482 277.455 226.288C273.16 228.093 268.547 229.024 263.888 229.024C259.228 229.024 254.615 228.093 250.32 226.288C246.025 224.482 242.134 221.836 238.876 218.507C232.399 211.409 228.808 202.149 228.808 192.542C228.808 182.935 232.399 173.675 238.876 166.577C242.134 163.248 246.025 160.603 250.32 158.797C254.615 156.991 259.228 156.061 263.888 156.061C268.547 156.061 273.16 156.991 277.455 158.797C281.75 160.603 285.641 163.248 288.9 166.577C295.352 173.687 298.926 182.943 298.926 192.542C298.926 202.141 295.352 211.397 288.9 218.507V218.507ZM421.728 152.774C410.879 142.087 397.266 136.748 380.887 136.76H336.527V248.392H380.887C397.266 248.392 410.879 243.048 421.728 232.361C432.576 221.673 438 208.434 438 192.643C438 176.751 432.576 163.462 421.728 152.774ZM404.5 218.105C397.897 224.806 389.384 228.156 378.96 228.156H359.336V157.012H378.96C389.384 157.012 397.897 160.363 404.5 167.063C411.103 173.764 414.398 182.296 414.387 192.659C414.533 197.345 413.733 202.011 412.034 206.38C410.335 210.749 407.773 214.731 404.5 218.088V218.105Z" fill="#0F0F50"/>
<path d="M183.774 152.824V143.996H166.093V135.151H121.901V143.996H104.238V152.824H95.3893V170.497H86.5576V214.654H95.3893V232.327H104.238V241.155H121.901V250H166.093V241.155H183.774V232.327H192.605V214.654H174.925V205.826H148.413V196.998H121.901V188.153H148.413V179.325H174.925V170.497H192.605V152.824H183.774Z" fill="#FFCD2D"/>
</svg>
