<svg width="712" height="484" viewBox="0 0 712 484" fill="none" xmlns="http://www.w3.org/2000/svg">
<g clip-path="url(#clip0_764_34)">
<path d="M408.081 74.5599V37.3603H333.88V0.200317H148.4V37.3603H74.2001V74.5599H37.0803V148.919H0V334.799H37.0803V409.158H74.2001V446.318H148.4V483.518H333.88V446.318H408.081V409.158H445.161V334.799H370.961V297.639H259.68V260.439H148.4V223.279H259.68V186.079H370.961V148.919H445.161V74.5599H408.081Z" fill="#FFCE32"/>
</g>
<path d="M504.205 205.517L498.263 197.742L482.704 209.632L476.756 201.848L453.413 219.686L459.361 227.47L451.577 233.418L475.363 264.544L483.147 258.596L489.088 266.372L512.431 248.534L494.593 225.191L502.377 219.243L496.429 211.459L504.205 205.517ZM498.706 246.706L490.922 252.655L484.974 244.871L477.199 250.813L471.251 243.029L479.026 237.087L484.974 244.871L492.758 238.923L498.706 246.706ZM549.038 183.586L572.806 214.688L565.047 220.617L570.995 228.401L539.868 252.187L533.92 244.403L526.144 250.345L502.377 219.243L510.153 213.301L504.205 205.517L535.331 181.731L541.279 189.515L549.038 183.586Z" fill="#E52322"/>
<path d="M529.833 222.92L535.774 230.696L527.991 236.644L522.049 228.868L529.833 222.92ZM535.774 230.696L541.703 238.455L549.487 232.507L543.558 224.748L535.774 230.696ZM471.25 243.029L477.199 250.812L484.974 244.871L479.026 237.087L471.25 243.029ZM490.922 252.654L498.706 246.706L492.758 238.923L484.974 244.871L490.922 252.654Z" fill="white"/>
<path d="M474.92 215.58L482.703 209.632L488.645 217.407L480.861 223.355L474.92 215.58ZM482.703 209.632L490.487 203.684L484.539 195.9L476.755 201.848L482.703 209.632ZM513.83 185.846L521.614 179.898L515.666 172.114L507.882 178.062L513.83 185.846ZM517.936 207.353L525.72 201.405L513.83 185.846L506.046 191.794L517.936 207.353ZM484.539 195.9L492.314 189.958L486.366 182.174L478.591 188.116L484.539 195.9ZM486.366 182.174L501.934 170.278L495.986 162.495L480.418 174.391L486.366 182.174ZM499.655 135.046L505.603 142.829L490.044 154.719L495.986 162.495L503.77 156.547L515.666 172.114L523.441 166.172L511.545 150.605L527.112 138.709L515.223 123.149L499.655 135.046Z" fill="#3AAA35"/>
<path d="M659.259 107.518L661.113 117.053L622.964 124.471L624.82 134.016L596.195 139.583L598.05 149.118L588.515 150.972L594.081 179.596L603.616 177.742L607.327 196.822L616.871 194.966L618.726 204.5L628.26 202.646L630.115 212.181L649.204 208.469L651.061 218.014L679.665 212.451L677.809 202.906L687.354 201.05L681.789 172.435L691.324 170.581L683.903 132.422L693.448 130.566L687.883 101.951L659.259 107.518Z" fill="#FFCE32"/>
<path d="M651.06 218.013L649.204 208.468L630.114 212.181L628.26 202.646L618.725 204.5L616.871 194.965L607.326 196.822L603.616 177.742L594.081 179.596L588.514 150.972L569.435 154.682L575.001 183.307L584.536 181.452L588.247 200.532L597.791 198.676L599.646 208.211L609.18 206.356L609.191 206.354L611.045 215.889L620.58 214.035L622.436 223.58L631.97 221.726L631.965 221.695L631.981 221.724L633.835 231.258L643.38 229.402L652.904 227.55L654.761 237.095L683.375 231.53L679.665 212.451L651.06 218.013Z" fill="#F59F40"/>
<path d="M651.32 168.465L660.855 166.611L664.563 185.681L655.029 187.535L656.885 197.08L637.805 200.79L635.949 191.245L626.414 193.099L622.706 174.03L632.24 172.176L630.384 162.631L649.464 158.92L651.32 168.465ZM638.065 151.242L636.209 141.697L645.743 139.843L642.033 120.763L622.963 124.471L624.82 134.016L605.74 137.727L607.594 147.262L617.129 145.407L618.985 154.952L638.065 151.242ZM672.514 124.741L674.368 134.276L664.823 136.132L668.533 155.212L678.078 153.356L679.935 162.901L689.469 161.047L683.903 132.422L693.448 130.566L691.593 121.031L672.514 124.741Z" fill="#E52322"/>
<path d="M647.271 278.333L652.812 296.995L550.166 327.473L544.625 308.81L553.956 306.039L551.186 296.708L560.517 293.937L557.749 284.616L576.422 279.071L573.649 269.73L601.613 261.427L604.387 270.768L623.07 265.221L625.837 274.542L635.169 271.772L637.939 281.103L647.271 278.333ZM561.243 364.779L566.77 383.392L576.101 380.621L578.869 389.943L662.852 365.007L660.084 355.685L669.416 352.915L663.889 334.301L561.243 364.779Z" fill="#F59F40"/>
<path d="M616.486 277.319L619.257 286.651L609.925 289.421L607.155 280.09L616.486 277.319ZM595.082 273.52L585.741 276.294L588.512 285.625L597.843 282.855L595.082 273.52ZM601.376 363.039L610.677 360.277L613.436 369.569L622.768 366.798L620.009 357.506L629.31 354.744L626.54 345.413L598.605 353.707L601.376 363.039ZM575.397 309.817L584.729 307.046L581.958 297.715L572.627 300.485L575.397 309.817Z" fill="#FFCE32"/>
<path d="M658.348 315.639L555.722 346.11L558.492 355.442L661.118 324.97L658.348 315.639Z" fill="#3AAA35"/>
<path d="M652.809 296.985L550.183 327.457L552.954 336.789L655.58 306.317L652.809 296.985Z" fill="#E52322"/>
<path d="M562.285 334.018L646.248 309.088L649.016 318.409L565.053 343.34L562.285 334.018ZM570.588 361.983L654.551 337.052L651.784 327.731L567.821 352.661L570.588 361.983Z" fill="#6F443B"/>
<defs>
<clipPath id="clip0_764_34">
<rect width="445.161" height="483.317" fill="white" transform="translate(0 0.200317)"/>
</clipPath>
</defs>
</svg>
