<svg width="357" height="204" viewBox="0 0 357 204" fill="none" xmlns="http://www.w3.org/2000/svg">
<g clip-path="url(#clip0_764_28)">
<path d="M62.6826 8.58429C56.5268 2.86143 48.4633 0 38.492 0H0V91.1056H18.604V60.5138H38.492C48.5634 60.5138 56.6498 57.7162 62.7509 52.1209C65.7552 49.3891 68.1308 46.0369 69.7133 42.2961C71.2958 38.5553 72.0474 34.5152 71.9163 30.4551C72.0368 26.3599 71.2745 22.2867 69.6811 18.5127C68.0878 14.7387 65.7008 11.3525 62.6826 8.58429V8.58429ZM48.7638 40.1466C47.3989 41.4469 45.7853 42.4575 44.0201 43.1176C42.2549 43.7777 40.3745 44.0736 38.492 43.9877H18.604V16.5261H38.492C40.3849 16.4509 42.2732 16.7651 44.04 17.4493C45.8067 18.1335 47.4145 19.1731 48.7638 20.5039C50.0555 21.7964 51.0687 23.3403 51.7406 25.0401C52.4126 26.74 52.729 28.5597 52.6703 30.3868C52.7242 32.1949 52.4052 33.9947 51.733 35.6739C51.0609 37.3532 50.0501 38.8757 48.7638 40.1466V40.1466ZM83.3219 0H101.871V91.1056H83.3219V0ZM201.543 0L169.102 45.4229L201.489 91.1056H178.855L157.779 60.3908L136.716 91.1056H114.602L146.988 45.6827L114.602 0H137.235L158.312 30.7148L179.374 0H201.543ZM213.058 0H273.665V16.5261H231.607V37.3581H272.312V53.7612H231.607V74.5795H273.61V91.1056H213.003L213.058 0ZM308.031 74.5795H350.034V91.1056H289.386V0H307.977L308.031 74.5795ZM0 111.596H57.9975V128.122H18.604V150.895H56.6998V167.421H18.604V202.688H0V111.596ZM214.984 110.229C201.461 110.229 190.106 114.74 180.918 123.761C176.428 128.072 172.883 133.271 170.51 139.027C168.138 144.784 166.988 150.971 167.135 157.196C167.003 163.401 168.159 169.566 170.532 175.3C172.904 181.035 176.441 186.213 180.918 190.508C190.115 199.539 201.47 204.055 214.984 204.055C228.498 204.055 239.88 199.539 249.132 190.508C253.597 186.207 257.121 181.026 259.481 175.292C261.842 169.558 262.988 163.396 262.846 157.196C262.978 150.99 261.821 144.823 259.449 139.087C257.077 133.35 253.54 128.169 249.064 123.871C239.876 114.813 228.516 110.284 214.984 110.284V110.229ZM235.473 178.302C232.817 181.018 229.646 183.177 226.145 184.651C222.644 186.124 218.884 186.883 215.086 186.883C211.289 186.883 207.529 186.124 204.028 184.651C200.527 183.177 197.356 181.018 194.7 178.302C189.421 172.51 186.494 164.954 186.494 157.114C186.494 149.275 189.421 141.719 194.7 135.927C197.356 133.21 200.527 131.052 204.028 129.578C207.529 128.105 211.289 127.346 215.086 127.346C218.884 127.346 222.644 128.105 226.145 129.578C229.646 131.052 232.817 133.21 235.473 135.927C240.732 141.729 243.645 149.281 243.645 157.114C243.645 164.947 240.732 172.5 235.473 178.302V178.302ZM343.737 124.664C334.895 115.943 323.799 111.587 310.449 111.596H274.293V202.688H310.449C323.799 202.688 334.895 198.327 343.737 189.606C352.579 180.885 357 170.082 357 157.196C357 144.229 352.579 133.385 343.737 124.664ZM329.695 177.974C324.313 183.441 317.374 186.175 308.878 186.175H292.883V128.122H308.878C317.374 128.122 324.313 130.856 329.695 136.324C335.077 141.791 337.763 148.753 337.754 157.21C337.873 161.033 337.221 164.841 335.836 168.406C334.451 171.972 332.363 175.221 329.695 177.96V177.974Z" fill="#0F0F50"/>
<path d="M149.788 124.705V117.501H135.378V110.284H99.3579V117.501H84.961V124.705H77.7489V139.126H70.5504V175.158H77.7489V189.579H84.961V196.783H99.3579V204H135.378V196.783H149.788V189.579H156.987V175.158H142.576V167.954H120.967V160.751H99.3579V153.533H120.967V146.33H142.576V139.126H156.987V124.705H149.788Z" fill="#FFCD2D"/>
</g>
<defs>
<clipPath id="clip0_764_28">
<rect width="357" height="204" fill="white"/>
</clipPath>
</defs>
</svg>
