<svg width="212" height="25" viewBox="0 0 212 25" fill="none" xmlns="http://www.w3.org/2000/svg">
<g clip-path="url(#clip0_762_23)">
<rect width="212" height="25" fill="white"/>
<path d="M17.7125 2.63858C15.9791 1.10888 13.7008 0.345104 10.8775 0.347267H0V24.6657H5.25501V16.4936H10.8775C13.7168 16.4936 16.0009 15.7471 17.7296 14.2542C19.4584 12.7613 20.3216 10.8334 20.3194 8.47073C20.3526 7.37885 20.137 6.29299 19.6872 5.28673C19.2374 4.28048 18.564 3.37736 17.7125 2.63858V2.63858ZM13.7798 11.0574C13.3939 11.404 12.938 11.6736 12.4393 11.8498C11.9406 12.026 11.4094 12.1053 10.8775 12.083H5.25501V4.75789H10.8775C11.4108 4.73596 11.9433 4.81704 12.4423 4.99617C12.9413 5.1753 13.3964 5.44871 13.7798 5.79969C14.1446 6.14496 14.4307 6.55724 14.6203 7.01106C14.8099 7.46488 14.8991 7.95061 14.8823 8.43827C14.9 8.92312 14.8111 9.40616 14.6214 9.85694C14.4316 10.3077 14.1451 10.7165 13.7798 11.0574V11.0574ZM23.1426 0.347267H28.3942V24.6657H23.1426V0.347267ZM56.1564 0.347267L47.0065 12.4659L56.1564 24.6657H49.7611L43.8089 16.4579L37.8567 24.6657H31.5987L40.7486 12.5471L31.5987 0.347267H37.994L43.9635 8.54213L49.9088 0.347267H56.1564ZM59.0278 0.347267H76.1495V4.75789H64.2828V10.3109H75.782V14.6891H64.2828V20.2421H76.1495V24.6657H59.0278V0.347267ZM85.1311 20.2421H96.9978V24.6657H79.8761V0.347267H85.1311V20.2421ZM111.087 0.347267H127.473V4.75789H116.338V10.8334H127.106V15.2538H116.338V24.6657H111.087V0.347267ZM171.873 0C168.049 0 164.843 1.20408 162.256 3.61223C160.987 4.7565 159.983 6.13758 159.308 7.66786C158.634 9.19813 158.303 10.8442 158.337 12.5016C158.302 14.1578 158.631 15.803 159.304 17.3327C159.976 18.8624 160.978 20.2433 162.246 21.3878C164.842 23.7894 168.051 24.9903 171.873 24.9903C175.695 24.9903 178.9 23.7862 181.49 21.378C182.755 20.2324 183.754 18.851 184.425 17.3214C185.095 15.7917 185.422 14.1472 185.385 12.4919C185.422 10.8361 185.095 9.19107 184.425 7.66089C183.754 6.13071 182.755 4.74874 181.49 3.60249C178.9 1.20083 175.695 0 171.873 0ZM177.643 18.1747C176.893 18.9 175.997 19.4763 175.007 19.8698C174.018 20.2633 172.955 20.4659 171.882 20.4659C170.808 20.4659 169.746 20.2633 168.756 19.8698C167.767 19.4763 166.87 18.9 166.12 18.1747C165.353 17.4256 164.752 16.5395 164.351 15.5682C163.951 14.5969 163.759 13.5599 163.788 12.5179C163.759 11.4753 163.95 10.4376 164.35 9.46574C164.751 8.49384 165.352 7.6072 166.12 6.85772C166.87 6.13241 167.767 5.55611 168.756 5.16265C169.746 4.76919 170.808 4.56651 171.882 4.56651C172.955 4.56651 174.018 4.76919 175.007 5.16265C175.997 5.55611 176.893 6.13241 177.643 6.85772C178.407 7.60663 179.006 8.49087 179.406 9.45951C179.806 10.4281 180 11.462 179.975 12.5016C180.004 13.5461 179.813 14.5856 179.412 15.5595C179.012 16.5335 178.411 17.4224 177.643 18.1747V18.1747ZM208.249 3.8524C205.754 1.51564 202.618 0.347267 198.842 0.347267H188.627V24.6657H198.842C202.618 24.6657 205.754 23.5027 208.249 21.1768C210.745 18.8509 211.995 15.9635 212 12.5146C212 9.05708 210.75 6.16427 208.249 3.83617V3.8524ZM204.282 18.0547C202.764 19.5151 200.804 20.2443 198.402 20.2421H193.882V4.75789H198.402C200.804 4.75789 202.764 5.48055 204.282 6.92587C205.8 8.3712 206.56 10.2298 206.56 12.5016C206.56 14.7453 205.8 16.5963 204.282 18.0547Z" fill="#1E1954"/>
<path d="M153.353 3.8459V1.92133H149.283V0H139.107V1.92133H135.036V3.8459H133.003V7.69181H130.966V17.3082H133.003V21.1541H135.036V23.0787H139.107V25H149.283V23.0787H153.353V21.1541H155.39V17.3082H151.317V15.3836H145.213V13.4623H139.107V11.5377H145.213V9.61638H151.317V7.69181H155.39V3.8459H153.353Z" fill="#FFCE32"/>
</g>
<defs>
<clipPath id="clip0_762_23">
<rect width="212" height="25" fill="white"/>
</clipPath>
</defs>
</svg>
