<svg width="314" height="323" viewBox="0 0 314 323" fill="none" xmlns="http://www.w3.org/2000/svg">
<path d="M314 81.2593V134.924H0V81.2593H28.5455V54.4267H57.0909V27.6228H114.212V0.761719H199.757V27.6228H256.909V54.4267H285.455V81.2593H314ZM0 242.197V295.72H28.5455V322.523H285.455V295.72H314V242.197H0Z" fill="#F59F40"/>
<path d="M228.303 54.4266V81.2591H199.757V54.4266H228.303ZM171.303 27.5941H142.727V54.4266H171.273L171.303 27.5941ZM114.273 269.087H142.727V295.805H171.273V269.087H199.727V242.254H114.273V269.087ZM85.6667 108.063H114.212V81.2306H85.6667V108.063Z" fill="#FFCE32"/>
<path d="M314 188.532H0.060791V215.365H314V188.532Z" fill="#3AAA35"/>
<path d="M314 134.896H0.060791V161.728H314V134.896Z" fill="#E52322"/>
<path d="M28.6062 161.728H285.455V188.532H28.6062V161.728ZM28.6062 242.14H285.455V215.336H28.6062V242.14Z" fill="#6F443B"/>
</svg>
