<svg width="311" height="311" viewBox="0 0 311 311" fill="none" xmlns="http://www.w3.org/2000/svg">
<path d="M155.486 155.518V129.622H103.667V103.698H25.9235V129.622H0V233.288H25.9235V259.184H103.667V181.441H129.59V155.518H155.486ZM77.7432 233.288H51.8196V207.365H25.9235V181.441H51.8196V207.365H77.7432V233.288ZM284.994 181.441V285.026H259.153V310.949H155.486V285.026H129.59V181.441H155.486V155.518H259.153V181.441H284.994Z" fill="#B1A9D4"/>
<path d="M181.41 233.289V259.185H155.486V233.289H181.41ZM181.41 259.185V285.026H207.333V259.185H181.41ZM25.9236 181.442V207.365H51.8197V181.442H25.9236ZM51.8197 233.289H77.7432V207.365H51.8197V233.289Z" fill="white"/>
<path d="M77.743 129.622H103.667V155.518H77.743V129.622ZM103.667 129.622H129.59V103.698H103.667V129.622ZM207.333 129.622H233.257V103.698H207.333V129.622ZM181.41 181.442H207.333V129.622H181.41V181.442ZM129.59 103.698H155.486V77.7748H129.59V103.698ZM155.486 77.7748H207.333V51.8513H155.486V77.7748ZM259.153 0.0316772V25.9552H207.333V51.8513H233.257V103.698H259.153V51.8513H311V0.0316772H259.153Z" fill="#1E1854"/>
</svg>
