<svg width="216" height="222" viewBox="0 0 216 222" fill="none" xmlns="http://www.w3.org/2000/svg">
<path d="M216 55.7966V92.7127H0V55.7966H19.6364V37.3386H39.2727V18.9002H78.5663V0.422485H137.413V18.9002H176.727V37.3386H196.364V55.7966H216ZM0 166.506V203.323H19.6364V221.762H196.364V203.323H216V166.506H0Z" fill="#F59F40"/>
<path d="M157.049 37.3385V55.7966H137.413V37.3385H157.049ZM117.839 18.8805H98.1818V37.3385H117.818L117.839 18.8805ZM78.6081 185.003H98.1818V203.382H117.818V185.003H137.392V166.545H78.6081V185.003ZM58.9299 74.235H78.5663V55.7769H58.9299V74.235Z" fill="#FFCE32"/>
<path d="M216 129.589H0.0418091V148.048H216V129.589Z" fill="#3AAA35"/>
<path d="M216 92.6931H0.0418091V111.151H216V92.6931Z" fill="#E52322"/>
<path d="M19.6781 111.151H196.364V129.589H19.6781V111.151ZM19.6781 166.466H196.364V148.028H19.6781V166.466Z" fill="#6F443B"/>
</svg>
