<?xml version="1.0" encoding="utf-8"?><svg viewBox="0 0 712 502.66" xmlns="http://www.w3.org/2000/svg" xmlns:xlink="http://www.w3.org/1999/xlink"><style>:root>svg{display:none}:root>svg:target{display:block}</style><svg viewBox="0 0 438 250" id="footer-logo" xmlns="http://www.w3.org/2000/svg"><path d="M76.905 10.52C69.352 3.507 59.459 0 47.225 0H0v111.649h22.825v-37.49h24.4c12.357 0 22.278-3.428 29.764-10.285a34.374 34.374 0 0011.245-26.552 34.948 34.948 0 00-11.33-26.802zM59.828 49.2a17.146 17.146 0 01-12.603 4.706h-24.4V20.254h24.4a16.998 16.998 0 0112.603 4.874A16.383 16.383 0 0164.62 37.24a16.127 16.127 0 01-4.793 11.96zM102.227 0h22.758v111.649h-22.758V0zm145.045 0L207.47 55.665l39.735 55.984h-27.769l-25.859-37.64-25.841 37.64h-27.132l39.734-55.665L140.604 0h27.769l25.858 37.64L220.073 0h27.199zm14.127 0h74.357v20.253h-51.599v25.529h49.94v20.102h-49.94v25.512h51.532v20.253h-74.357L261.399 0zm116.522 91.396h51.532v20.253h-74.408V0h22.809l.067 91.396zM0 136.76h71.157v20.252H22.825v27.908h46.74v20.253h-46.74v43.219H0V136.76zm263.762-1.676c-16.591 0-30.523 5.528-41.796 16.584a54.98 54.98 0 00-16.909 40.975 54.895 54.895 0 004.167 22.186 54.933 54.933 0 0012.742 18.637c11.284 11.067 25.216 16.601 41.796 16.601s30.545-5.534 41.896-16.601a54.928 54.928 0 0016.826-40.823 54.968 54.968 0 00-16.91-40.841c-11.272-11.1-25.21-16.651-41.812-16.651v-.067zm25.138 83.423a35.006 35.006 0 01-25.012 10.517 34.992 34.992 0 01-25.012-10.517 38.52 38.52 0 01-10.068-25.965 38.52 38.52 0 0110.068-25.965 34.989 34.989 0 0125.012-10.516 35.003 35.003 0 0125.012 10.516 38.638 38.638 0 010 51.93zm132.828-65.733c-10.849-10.687-24.462-16.026-40.841-16.014h-44.36v111.632h44.36c16.379 0 29.992-5.344 40.841-16.031C432.576 221.673 438 208.434 438 192.643c0-15.892-5.424-29.181-16.272-39.869zM404.5 218.105c-6.603 6.701-15.116 10.051-25.54 10.051h-19.624v-71.144h19.624c10.424 0 18.937 3.351 25.54 10.051 6.603 6.701 9.898 15.233 9.887 25.596a34.86 34.86 0 01-9.887 25.429v.017zM183.774 152.824v-8.828h-17.681v-8.845h-44.192v8.845h-17.663v8.828h-8.849v17.673h-8.831v44.157h8.831v17.673h8.849v8.828h17.663V250h44.192v-8.845h17.681v-8.828h8.831v-17.673h-17.68v-8.828h-26.512v-8.828h-26.512v-8.845h26.512v-8.828h26.512v-8.828h17.68v-17.673h-8.831z"/></svg><svg viewBox="0 0 712 484" id="greeting-group" xmlns="http://www.w3.org/2000/svg"><g clip-path="url(#ba)"><path d="M408.081 74.56v-37.2H333.88V.2H148.4v37.16H74.2v37.2H37.08v74.359H0v185.88h37.08v74.359H74.2v37.16h74.2v37.2h185.48v-37.2h74.201v-37.16h37.08v-74.359h-74.2v-37.16H259.68v-37.2H148.4v-37.16h111.28v-37.2h111.281v-37.16h74.2v-74.36h-37.08z"/></g><path d="M504.205 205.517l-5.942-7.775-15.559 11.89-5.948-7.784-23.343 17.838 5.948 7.784-7.784 5.948 23.786 31.126 7.784-5.948 5.941 7.776 23.343-17.838-17.838-23.343 7.784-5.948-5.948-7.784 7.776-5.942zm-5.499 41.189l-7.784 5.949-5.948-7.784-7.775 5.942-5.948-7.784 7.775-5.942 5.948 7.784 7.784-5.948 5.948 7.783zm50.332-63.12l23.768 31.102-7.759 5.929 5.948 7.784-31.127 23.786-5.948-7.784-7.776 5.942-23.767-31.102 7.776-5.942-5.948-7.784 31.126-23.786 5.948 7.784 7.759-5.929z"/><path d="M529.833 222.92l5.941 7.776-7.783 5.948-5.942-7.776 7.784-5.948zm5.941 7.776l5.929 7.759 7.784-5.948-5.929-7.759-7.784 5.948zm-64.524 12.333l5.949 7.783 7.775-5.941-5.948-7.784-7.776 5.942zm19.672 9.625l7.784-5.948-5.948-7.783-7.784 5.948 5.948 7.783zM474.92 215.58l7.783-5.948 5.942 7.775-7.784 5.948-5.941-7.775zm7.783-5.948l7.784-5.948-5.948-7.784-7.784 5.948 5.948 7.784zm31.127-23.786l7.784-5.948-5.948-7.784-7.784 5.948 5.948 7.784zm4.106 21.507l7.784-5.948-11.89-15.559-7.784 5.948 11.89 15.559zM484.539 195.9l7.775-5.942-5.948-7.784-7.775 5.942 5.948 7.784zm1.827-13.726l15.568-11.896-5.948-7.783-15.568 11.896 5.948 7.783zm13.289-47.128l5.948 7.783-15.559 11.89 5.942 7.776 7.784-5.948 11.896 15.567 7.775-5.942-11.896-15.567 15.567-11.896-11.889-15.56-15.568 11.897zM659.259 107.518l1.854 9.535-38.149 7.418 1.856 9.545-28.625 5.567 1.855 9.535-9.535 1.854 5.566 28.624 9.535-1.854 3.711 19.08 9.544-1.856 1.855 9.534 9.534-1.854 1.855 9.535 19.089-3.712 1.857 9.545 28.604-5.563-1.856-9.545 9.545-1.856-5.565-28.615 9.535-1.854-7.421-38.159 9.545-1.856-5.565-28.615-28.624 5.567z"/><path d="M651.06 218.013l-1.856-9.545-19.09 3.713-1.854-9.535-9.535 1.854-1.854-9.535-9.545 1.857-3.71-19.08-9.535 1.854-5.567-28.624-19.079 3.71 5.566 28.625 9.535-1.855 3.711 19.08 9.544-1.856 1.855 9.535 9.534-1.855.011-.002 1.854 9.535 9.535-1.854 1.856 9.545 9.534-1.854-.005-.031.016.029 1.854 9.534 9.545-1.856 9.524-1.852 1.857 9.545 28.614-5.565-3.71-19.079-28.605 5.562z"/><path d="M651.32 168.465l9.535-1.854 3.708 19.07-9.534 1.854 1.856 9.545-19.08 3.71-1.856-9.545-9.535 1.854-3.708-19.069 9.534-1.854-1.856-9.545 19.08-3.711 1.856 9.545zm-13.255-17.223l-1.856-9.545 9.534-1.854-3.71-19.08-19.07 3.708 1.857 9.545-19.08 3.711 1.854 9.535 9.535-1.855 1.856 9.545 19.08-3.71zm34.449-26.501l1.854 9.535-9.545 1.856 3.71 19.08 9.545-1.856 1.857 9.545 9.534-1.854-5.566-28.625 9.545-1.856-1.855-9.535-19.079 3.71zM647.271 278.333l5.541 18.662-102.646 30.478-5.541-18.663 9.331-2.771-2.77-9.331 9.331-2.771-2.768-9.321 18.673-5.545-2.773-9.341 27.964-8.303 2.774 9.341 18.683-5.547 2.767 9.321 9.332-2.77 2.77 9.331 9.332-2.77zm-86.028 86.446l5.527 18.613 9.331-2.771 2.768 9.322 83.983-24.936-2.768-9.322 9.332-2.77-5.527-18.614-102.646 30.478z"/><path d="M616.486 277.319l2.771 9.332-9.332 2.77-2.77-9.331 9.331-2.771zm-21.404-3.799l-9.341 2.774 2.771 9.331 9.331-2.77-2.761-9.335zm6.294 89.519l9.301-2.762 2.759 9.292 9.332-2.771-2.759-9.292 9.301-2.762-2.77-9.331-27.935 8.294 2.771 9.332zm-25.979-53.222l9.332-2.771-2.771-9.331-9.331 2.77 2.77 9.332zM658.348 315.639L555.722 346.11l2.77 9.332 102.626-30.472-2.77-9.331zM652.809 296.985l-102.626 30.472 2.771 9.332 102.626-30.472-2.771-9.332z"/><path d="M562.285 334.018l83.963-24.93 2.768 9.321-83.963 24.931-2.768-9.322zm8.303 27.965l83.963-24.931-2.767-9.321-83.963 24.93 2.767 9.322z"/><defs><clipPath id="ba"><path transform="translate(0 .2)" d="M0 0h445.161v483.317H0z"/></clipPath></defs></svg><svg viewBox="0 0 357 204" id="greeting-img" xmlns="http://www.w3.org/2000/svg"><g clip-path="url(#ca)"><path d="M62.683 8.584C56.527 2.861 48.463 0 38.492 0H0v91.106h18.604V60.514h19.888c10.071 0 18.158-2.798 24.259-8.393a28.05 28.05 0 009.165-21.666 28.545 28.545 0 00-9.233-21.87zm-13.92 31.563a13.973 13.973 0 01-10.271 3.84H18.604v-27.46h19.888a13.842 13.842 0 0110.272 3.977 13.37 13.37 0 013.906 9.883 13.17 13.17 0 01-3.906 9.76zM83.323 0h18.549v91.106h-18.55V0zm118.221 0l-32.441 45.423 32.387 45.683h-22.634L157.779 60.39l-21.063 30.715h-22.114l32.386-45.423L114.602 0h22.633l21.077 30.715L179.374 0h22.169zm11.515 0h60.607v16.526h-42.058v20.832h40.705v16.403h-40.705V74.58h42.003v16.527h-60.607L213.058 0zm94.973 74.58h42.003v16.526h-60.648V0h18.591l.054 74.58zM0 111.595h57.998v16.526H18.604v22.773H56.7v16.526H18.604v35.267H0v-91.092zm214.984-1.367c-13.523 0-24.878 4.511-34.066 13.532a44.876 44.876 0 00-13.783 33.435 44.85 44.85 0 0013.783 33.312c9.197 9.031 20.552 13.547 34.066 13.547 13.514 0 24.896-4.516 34.148-13.547a44.833 44.833 0 0013.714-33.312 44.893 44.893 0 00-13.782-33.325c-9.188-9.058-20.548-13.587-34.08-13.587v-.055zm20.489 68.073a28.517 28.517 0 01-31.445 6.349 28.534 28.534 0 01-9.328-6.349 31.454 31.454 0 010-42.375 28.519 28.519 0 0120.386-8.581 28.517 28.517 0 0120.387 8.581 31.55 31.55 0 010 42.375zm108.264-53.638c-8.842-8.721-19.938-13.077-33.288-13.068h-36.156v91.092h36.156c13.35 0 24.446-4.361 33.288-13.082 8.842-8.721 13.263-19.524 13.263-32.41 0-12.967-4.421-23.811-13.263-32.532zm-14.042 53.31c-5.382 5.467-12.321 8.201-20.817 8.201h-15.995v-58.053h15.995c8.496 0 15.435 2.734 20.817 8.202 5.382 5.467 8.068 12.429 8.059 20.886a28.471 28.471 0 01-8.059 20.75v.014zM149.788 124.705v-7.204h-14.41v-7.217h-36.02v7.217H84.96v7.204h-7.212v14.421H70.55v36.032h7.199v14.421h7.212v7.204h14.397V204h36.02v-7.217h14.41v-7.204h7.199v-14.421h-14.411v-7.204h-21.609v-7.203h-21.61v-7.218h21.61v-7.203h21.609v-7.204h14.411v-14.421h-7.199z"/></g><defs><clipPath id="ca"><path d="M0 0h357v204H0z"/></clipPath></defs></svg><svg viewBox="0 0 212 25" id="header-logo" xmlns="http://www.w3.org/2000/svg"><g clip-path="url(#da)"><path d="M0 0h212v25H0z"/><path d="M17.712 2.639C15.98 1.109 13.701.345 10.877.347H0v24.319h5.255v-8.172h5.622c2.84 0 5.124-.747 6.853-2.24 1.728-1.493 2.592-3.42 2.59-5.783a7.254 7.254 0 00-.633-3.184 7.638 7.638 0 00-1.975-2.648zm-3.932 8.418a3.999 3.999 0 01-1.34.793 4.168 4.168 0 01-1.563.233H5.255V4.758h5.622a4.133 4.133 0 011.565.238c.5.18.954.453 1.338.804.365.345.65.757.84 1.211.19.454.28.94.262 1.427a3.34 3.34 0 01-.26 1.419c-.19.45-.477.86-.842 1.2zM23.143.347h5.251v24.319h-5.251V.347zm33.013 0l-9.15 12.119 9.15 12.2h-6.395l-5.952-8.208-5.952 8.208h-6.258l9.15-12.119-9.15-12.2h6.395l5.97 8.195L49.909.347h6.247zm2.872 0H76.15v4.41H64.282v5.554h11.499v4.378h-11.5v5.553H76.15v4.424H59.028V.347zM85.13 20.242h11.867v4.424H79.876V.347h5.255v19.895zM111.087.347h16.386v4.41h-11.135v6.076h10.768v4.42h-10.768v9.413h-5.251V.347zM171.873 0c-3.824 0-7.03 1.204-9.617 3.612a11.977 11.977 0 00-2.948 4.056 11.401 11.401 0 00-.971 4.834 11.388 11.388 0 00.967 4.83 11.94 11.94 0 002.942 4.056c2.596 2.401 5.805 3.602 9.627 3.602 3.822 0 7.027-1.204 9.617-3.612a11.963 11.963 0 002.935-4.057c.67-1.53.997-3.174.96-4.83.037-1.655-.29-3.3-.96-4.83a11.97 11.97 0 00-2.935-4.059C178.9 1.201 175.695 0 171.873 0zm5.77 18.175a8.083 8.083 0 01-2.636 1.695 8.462 8.462 0 01-3.125.596 8.467 8.467 0 01-3.126-.596 8.094 8.094 0 01-2.636-1.695 7.815 7.815 0 01-1.769-2.607 7.46 7.46 0 01-.563-3.05 7.467 7.467 0 01.562-3.052 7.807 7.807 0 011.77-2.608 8.093 8.093 0 012.636-1.695 8.468 8.468 0 013.126-.596c1.073 0 2.136.202 3.125.596a8.08 8.08 0 012.636 1.695 7.834 7.834 0 011.763 2.602c.4.968.594 2.002.569 3.042a7.478 7.478 0 01-.563 3.057 7.825 7.825 0 01-1.769 2.616zm30.606-14.323c-2.495-2.336-5.631-3.505-9.407-3.505h-10.215v24.319h10.215c3.776 0 6.912-1.163 9.407-3.49 2.496-2.325 3.746-5.212 3.751-8.661 0-3.458-1.25-6.35-3.751-8.679v.016zm-3.967 14.203c-1.518 1.46-3.478 2.19-5.88 2.187h-4.52V4.758h4.52c2.402 0 4.362.723 5.88 2.168 1.518 1.445 2.278 3.304 2.278 5.576 0 2.243-.76 4.094-2.278 5.553zM153.353 3.846V1.92h-4.07V0h-10.176v1.921h-4.071v1.925h-2.033v3.846h-2.037v9.616h2.037v3.846h2.033v1.925h4.071V25h10.176v-1.921h4.07v-1.925h2.037v-3.846h-4.073v-1.924h-6.104v-1.922h-6.106v-1.924h6.106V9.616h6.104V7.692h4.073V3.846h-2.037z"/></g><defs><clipPath id="da"><path d="M0 0h212v25H0z"/></clipPath></defs></svg><svg viewBox="0 0 502.664 502.664" id="icon" xmlns="http://www.w3.org/2000/svg"><path d="M153.821 358.226L0 274.337v-46.463l153.821-83.414v54.574L46.636 250.523l107.185 53.431v54.272zm26.273 29.358L282.103 115.08h32.227L212.084 387.584h-31.99zm168.749-29.358v-54.272l107.164-52.999-107.164-52.59v-53.927l153.821 83.522v46.183l-153.821 84.083z"/></svg><svg viewBox="0 0 13 19" id="paging" xmlns="http://www.w3.org/2000/svg"><rect x=".889" y=".778" width="11.407" height="17.667" rx="5.704"/><path d="M6.366 6.255v2.018"/></svg></svg>